<?xml version="1.0" encoding="utf-8"?>
<!-- Generator: Adobe Illustrator 27.5.0, SVG Export Plug-In . SVG Version: 6.00 Build 0)  -->
<svg version="1.1" xmlns="http://www.w3.org/2000/svg" xmlns:xlink="http://www.w3.org/1999/xlink" x="0px" y="0px"
	 viewBox="0 0 500 500" style="enable-background:new 0 0 500 500;" xml:space="preserve">
<g id="BACKGROUND">
</g>
<g id="OBJECTS">
	
		<radialGradient id="SVGID_1_" cx="250" cy="426.1245" r="143.6002" gradientTransform="matrix(1 0 0 0.0677 0 397.2631)" gradientUnits="userSpaceOnUse">
		<stop  offset="0" style="stop-color:#000000"/>
		<stop  offset="1" style="stop-color:#FFFFFF"/>
	</radialGradient>
	<ellipse style="opacity:0.2;fill:url(#SVGID_1_);" cx="250" cy="426.125" rx="156.264" ry="10.422"/>
	<g>
		<g>
			<g>
				
					<linearGradient id="SVGID_00000114076036332528383200000013788426782111787406_" gradientUnits="userSpaceOnUse" x1="317.7325" y1="117.5466" x2="264.4991" y2="270.9093">
					<stop  offset="0" style="stop-color:#8DF49B"/>
					<stop  offset="1" style="stop-color:#406FA0"/>
				</linearGradient>
				<path style="fill:url(#SVGID_00000114076036332528383200000013788426782111787406_);" d="M204.324,169.639
					c41.764,52.323,4.403,80.816,38.532,101.66c20.454,12.492,38.156,2.934,49.132-10.429
					c14.131-17.204,40.877-17.211,47.921-17.903c28.307-2.78,61.111-16.609,65.474-53.123c4.506-37.711-19.8-60.998-56.157-59.233
					c-63.932,3.104-103.696-56.884-142.695-14.822C195.332,127.868,194.242,157.007,204.324,169.639z"/>
				
					<linearGradient id="SVGID_00000165916288722718757290000010378415579084710540_" gradientUnits="userSpaceOnUse" x1="311.744" y1="107.4461" x2="297.8074" y2="184.9332">
					<stop  offset="0" style="stop-color:#8DF49B"/>
					<stop  offset="1" style="stop-color:#000000"/>
				</linearGradient>
				<path style="fill:url(#SVGID_00000165916288722718757290000010378415579084710540_);" d="M204.324,169.639
					c41.764,52.323,4.403,80.816,38.532,101.66c20.454,12.492,38.156,2.934,49.132-10.429
					c14.131-17.204,40.877-17.211,47.921-17.903c28.307-2.78,61.111-16.609,65.474-53.123c4.506-37.711-19.8-60.998-56.157-59.233
					c-63.932,3.104-103.696-56.884-142.695-14.822C195.332,127.868,194.242,157.007,204.324,169.639z"/>
				
					<linearGradient id="SVGID_00000008130241667050368400000014410995217480891308_" gradientUnits="userSpaceOnUse" x1="311.744" y1="107.4461" x2="297.8074" y2="184.9332">
					<stop  offset="0" style="stop-color:#8DF49B"/>
					<stop  offset="1" style="stop-color:#000000"/>
				</linearGradient>
				<path style="fill:url(#SVGID_00000008130241667050368400000014410995217480891308_);" d="M204.324,169.639
					c41.764,52.323,4.403,80.816,38.532,101.66c20.454,12.492,38.156,2.934,49.132-10.429
					c14.131-17.204,40.877-17.211,47.921-17.903c28.307-2.78,61.111-16.609,65.474-53.123c4.506-37.711-19.8-60.998-56.157-59.233
					c-63.932,3.104-103.696-56.884-142.695-14.822C195.332,127.868,194.242,157.007,204.324,169.639z"/>
				
					<linearGradient id="SVGID_00000046312046158767778010000008455158329500556469_" gradientUnits="userSpaceOnUse" x1="285.0609" y1="277.0802" x2="300.8025" y2="169.2897">
					<stop  offset="0" style="stop-color:#62A180"/>
					<stop  offset="0.1947" style="stop-color:#83B59A"/>
					<stop  offset="0.7488" style="stop-color:#DCEAE2"/>
					<stop  offset="1" style="stop-color:#FFFFFF"/>
				</linearGradient>
				<path style="fill:url(#SVGID_00000046312046158767778010000008455158329500556469_);" d="M204.324,169.639
					c41.764,52.323,4.403,80.816,38.532,101.66c20.454,12.492,38.156,2.934,49.132-10.429
					c14.131-17.204,40.877-17.211,47.921-17.903c28.307-2.78,61.111-16.609,65.474-53.123c4.506-37.711-19.8-60.998-56.157-59.233
					c-63.932,3.104-103.696-56.884-142.695-14.822C195.332,127.868,194.242,157.007,204.324,169.639z"/>
			</g>
			
				<linearGradient id="SVGID_00000138540658278125033350000010026447819223020194_" gradientUnits="userSpaceOnUse" x1="388.7809" y1="213.4274" x2="319.4127" y2="259.9866">
				<stop  offset="0" style="stop-color:#8DF49B"/>
				<stop  offset="1" style="stop-color:#406FA0"/>
			</linearGradient>
			
				<circle style="opacity:0.3;fill:url(#SVGID_00000138540658278125033350000010026447819223020194_);" cx="351.867" cy="238.204" r="54.398"/>
			<g>
				
					<linearGradient id="SVGID_00000005265337888185242880000006320829366156182430_" gradientUnits="userSpaceOnUse" x1="209.8129" y1="189.0223" x2="296.9474" y2="429.3931">
					<stop  offset="0" style="stop-color:#8DF49B"/>
					<stop  offset="1" style="stop-color:#406FA0"/>
				</linearGradient>
				<path style="fill:url(#SVGID_00000005265337888185242880000006320829366156182430_);" d="M368.153,233.998
					c-88.108-42.689-54.414-99.309-113.283-106.603c-35.281-4.371-53.609,17.492-60.516,40.411
					c-8.892,29.508-45.046,44.689-54.391,49.149c-22.632,10.801-58.392,47.615-42.115,95.919
					c18.821,55.854,75.585,57.841,96.486,55.777c26.58-2.625,50.935-16.891,73.133-35.884c29.661-25.377,52.637-8.032,81.035-6.589
					c27.774,1.411,44.211-17.118,47.605-33.067C400.84,270.873,389.424,244.304,368.153,233.998z"/>
				
					<linearGradient id="SVGID_00000183962824733958680820000001914446304372593556_" gradientUnits="userSpaceOnUse" x1="332.2338" y1="140.6014" x2="265.8605" y2="248.5302">
					<stop  offset="0" style="stop-color:#FFFFFF"/>
					<stop  offset="1" style="stop-color:#000000"/>
				</linearGradient>
				<path style="fill:url(#SVGID_00000183962824733958680820000001914446304372593556_);" d="M368.153,233.998
					c-88.108-42.689-54.414-99.309-113.283-106.603c-35.281-4.371-53.609,17.492-60.516,40.411
					c-8.892,29.508-45.046,44.689-54.391,49.149c-22.632,10.801-58.392,47.615-42.115,95.919
					c18.821,55.854,75.585,57.841,96.486,55.777c26.58-2.625,50.935-16.891,73.133-35.884c29.661-25.377,52.637-8.032,81.035-6.589
					c27.774,1.411,44.211-17.118,47.605-33.067C400.84,270.873,389.424,244.304,368.153,233.998z"/>
			</g>
			
				<linearGradient id="SVGID_00000168829805173336693330000004032766184344103049_" gradientUnits="userSpaceOnUse" x1="162.1354" y1="177.9812" x2="209.0499" y2="232.1132">
				<stop  offset="0" style="stop-color:#8DF49B"/>
				<stop  offset="1" style="stop-color:#406FA0"/>
			</linearGradient>
			<path style="opacity:0.2;fill:url(#SVGID_00000168829805173336693330000004032766184344103049_);" d="M231.292,141.125
				c-13.525-22.109-75.329-14.557-107.931,24.297c-32.602,38.854-17.854,92.274,34.543,99.525
				c52.397,7.251,90.06-34.811,84.715-60.922c-2.563-12.524-9.354-20.523-11.327-31.677
				C229.319,161.194,237.535,151.329,231.292,141.125z"/>
			<g>
				
					<linearGradient id="SVGID_00000080918479738465739470000000159854063761622445_" gradientUnits="userSpaceOnUse" x1="306.1875" y1="360.5306" x2="270.7361" y2="303.516">
					<stop  offset="0" style="stop-color:#8DF49B"/>
					<stop  offset="1" style="stop-color:#406FA0"/>
				</linearGradient>
				<path style="fill:url(#SVGID_00000080918479738465739470000000159854063761622445_);" d="M329.949,340.05
					c-1.739-12.206-23.13-14.575-33.586-12.674c-10.456,1.901-34.22,17.11-28.517,31.685
					C273.549,373.636,332.913,360.859,329.949,340.05z"/>
				
					<linearGradient id="SVGID_00000052803399301700771680000009053833023014610572_" gradientUnits="userSpaceOnUse" x1="294.5125" y1="326.0831" x2="299.469" y2="353.3443">
					<stop  offset="0" style="stop-color:#8DF49B"/>
					<stop  offset="1" style="stop-color:#000000"/>
				</linearGradient>
				<path style="fill:url(#SVGID_00000052803399301700771680000009053833023014610572_);" d="M329.949,340.05
					c-1.739-12.206-23.13-14.575-33.586-12.674c-10.456,1.901-34.22,17.11-28.517,31.685
					C273.549,373.636,332.913,360.859,329.949,340.05z"/>
			</g>
			
				<linearGradient id="SVGID_00000176761348692499789530000008890821597049473677_" gradientUnits="userSpaceOnUse" x1="183.1078" y1="324.0613" x2="143.9995" y2="397.4646">
				<stop  offset="0" style="stop-color:#8DF49B"/>
				<stop  offset="1" style="stop-color:#406FA0"/>
			</linearGradient>
			
				<ellipse style="fill:url(#SVGID_00000176761348692499789530000008890821597049473677_);" cx="164.504" cy="358.98" rx="46.164" ry="40.247"/>
			
				<linearGradient id="SVGID_00000017485590451243638890000004346395622115169425_" gradientUnits="userSpaceOnUse" x1="243.0826" y1="365.1713" x2="251.0523" y2="378.5322">
				<stop  offset="0" style="stop-color:#8DF49B"/>
				<stop  offset="1" style="stop-color:#406FA0"/>
			</linearGradient>
			<path style="fill:url(#SVGID_00000017485590451243638890000004346395622115169425_);" d="M251.369,367.413h-4.185v-4.185
				c0-0.956-0.775-1.731-1.732-1.731c-0.956,0-1.731,0.775-1.731,1.731v4.185h-4.185c-0.956,0-1.732,0.775-1.732,1.732
				s0.775,1.732,1.732,1.732h4.185v4.185c0,0.956,0.775,1.732,1.731,1.732c0.956,0,1.732-0.775,1.732-1.732v-4.185h4.185
				c0.956,0,1.731-0.775,1.731-1.732S252.325,367.413,251.369,367.413z"/>
			
				<linearGradient id="SVGID_00000126286735652294875690000014970954109574434712_" gradientUnits="userSpaceOnUse" x1="183.7024" y1="98.1065" x2="192.399" y2="112.6862" gradientTransform="matrix(0.7071 0.7071 -0.7071 0.7071 115.335 -91.6738)">
				<stop  offset="0" style="stop-color:#8DF49B"/>
				<stop  offset="1" style="stop-color:#406FA0"/>
			</linearGradient>
			<path style="fill:url(#SVGID_00000126286735652294875690000014970954109574434712_);" d="M180.609,116.664l-4.217-4.217
				l4.183-4.183c0.486-0.486,0.486-1.274,0-1.76c-0.486-0.486-1.274-0.486-1.76,0l-4.183,4.183l-4.217-4.217
				c-0.486-0.486-1.274-0.486-1.76,0c-0.486,0.486-0.486,1.274,0,1.76l4.217,4.217l-4.25,4.25c-0.486,0.486-0.486,1.274,0,1.76
				c0.486,0.486,1.274,0.486,1.76,0l4.25-4.25l4.217,4.217c0.486,0.486,1.274,0.486,1.76,0
				C181.095,117.938,181.095,117.15,180.609,116.664z"/>
			<g>
				
					<linearGradient id="SVGID_00000168833530449463923670000011509298672313332130_" gradientUnits="userSpaceOnUse" x1="420.2592" y1="267.7491" x2="381.8088" y2="212.7717">
					<stop  offset="0" style="stop-color:#8DF49B"/>
					<stop  offset="1" style="stop-color:#406FA0"/>
				</linearGradient>
				<path style="fill:url(#SVGID_00000168833530449463923670000011509298672313332130_);" d="M399.595,244.872
					c-3.677,0-6.669-2.992-6.669-6.669c0-3.677,2.992-6.669,6.669-6.669c3.677,0,6.669,2.992,6.669,6.669
					C406.264,241.881,403.272,244.872,399.595,244.872z M399.595,234.132c-2.245,0-4.072,1.826-4.072,4.071
					c0,2.245,1.826,4.072,4.072,4.072c2.246,0,4.072-1.827,4.072-4.072C403.667,235.958,401.841,234.132,399.595,234.132z"/>
			</g>
			
				<linearGradient id="SVGID_00000032636228052510650200000008249964696280937607_" gradientUnits="userSpaceOnUse" x1="352.2791" y1="335.5908" x2="352.2791" y2="350.8414">
				<stop  offset="0" style="stop-color:#8DF49B"/>
				<stop  offset="1" style="stop-color:#FFFFFF"/>
			</linearGradient>
			
				<ellipse style="fill:url(#SVGID_00000032636228052510650200000008249964696280937607_);" cx="352.279" cy="343.033" rx="11.87" ry="8.904"/>
		</g>
		<g>
			
				<text transform="matrix(1 0 0 1 188.274 239.2246)" style="fill:#FFFFFF; font-family:'Raleway-ExtraBold'; font-size:21.0686px;">ABSTRACT</text>
			<text transform="matrix(1 0 0 1 186.8442 267.3365)" style="fill:#FFFFFF; font-family:'Raleway-Regular'; font-size:33.319px;">FRAME</text>
		</g>
	</g>
</g>
<g id="DESIGNED_BY_FREEPIK">
	<g>
		<g id="XMLID_319_">
			<g id="XMLID_338_">
				<path id="XMLID_346_" style="fill:#222221;" d="M260.104,465.465c-0.432,0.443-0.803,0.931-1.108,1.453l-0.465-0.241
					c-0.067-0.298-0.349-0.503-0.659-0.466c-0.331,0.039-0.568,0.339-0.529,0.67s0.339,0.568,0.67,0.529
					c0.065-0.008,0.127-0.026,0.184-0.052l0.451,0.234c-0.251,0.554-0.433,1.139-0.539,1.744l0.746,0.132
					c0.23-1.306,0.85-2.507,1.792-3.473L260.104,465.465z"/>
				<path id="XMLID_345_" style="fill:#222221;" d="M265.592,463.163c-0.171,0-0.341,0.006-0.51,0.017l-0.074-0.626
					c0.188-0.149,0.296-0.389,0.266-0.645c-0.046-0.393-0.402-0.674-0.795-0.628s-0.674,0.402-0.628,0.795
					c0.03,0.254,0.189,0.461,0.405,0.564l0.073,0.624c-0.714,0.116-1.403,0.332-2.06,0.646l0.327,0.684
					c0.934-0.447,1.942-0.673,2.995-0.673c0.496,0,0.993,0.053,1.475,0.158l0.161-0.741
					C266.693,463.222,266.142,463.163,265.592,463.163z"/>
				<path id="XMLID_344_" style="fill:#222221;" d="M272.194,465.711c0.331-0.04,0.566-0.341,0.525-0.672
					c-0.04-0.331-0.341-0.566-0.672-0.526c-0.309,0.038-0.535,0.304-0.53,0.609l-0.416,0.363c-0.418-0.43-0.89-0.813-1.408-1.139
					l-0.404,0.641c1.134,0.715,2.021,1.726,2.563,2.925l0.691-0.313c-0.251-0.554-0.568-1.072-0.942-1.545l0.402-0.351
					C272.065,465.716,272.129,465.719,272.194,465.711z"/>
				<path id="XMLID_343_" style="fill:#222221;" d="M265.044,473.372c-0.386,0.023-0.775,0.035-1.157,0.035
					c-0.88,0-1.733-0.061-2.478-0.179c-0.39-0.062-0.846-0.155-1.27-0.292c1.046,1.861,3.069,3.125,5.388,3.125
					c2.855,0,5.262-1.916,5.95-4.504c-0.682,0.449-1.505,0.825-2.459,1.123C267.839,473.047,266.464,473.286,265.044,473.372z"/>
				<path id="XMLID_339_" style="fill:#222221;" d="M265.592,464.68c-3.352,0-6.08,2.666-6.08,5.943
					c0,0.426,0.046,0.849,0.137,1.261c0.674,0.483,2.706,0.89,5.348,0.731c2.879-0.173,5.297-0.957,6.672-2.159
					c-0.005-0.195-0.021-0.39-0.045-0.582C271.244,466.913,268.65,464.68,265.592,464.68z M263.432,471.194
					c-1.02,0-1.85-0.83-1.85-1.85c0-1.02,0.83-1.85,1.85-1.85c1.02,0,1.85,0.83,1.85,1.85
					C265.282,470.365,264.452,471.194,263.432,471.194z M268.17,470.286c-0.75,0-1.36-0.61-1.36-1.36s0.61-1.361,1.36-1.361
					c0.75,0,1.361,0.61,1.361,1.361S268.92,470.286,268.17,470.286z"/>
			</g>
			<path id="XMLID_336_" style="fill:#222221;" d="M281.595,466.547c-0.295-0.116-0.806-0.309-1.382-0.237
				c-0.551,0.069-0.844,0.341-0.844,1.007v0.866h2.228v1.717h-2.228v5.455h-1.932v-5.455h-1.34v-1.717h1.34v-0.888
				c0-1.68,0.896-2.783,2.568-2.783c0.642,0,1.157,0.122,1.59,0.308L281.595,466.547z"/>
			<path id="XMLID_334_" style="fill:#222221;" d="M286.298,469.879c-0.177-0.03-0.358-0.046-0.526-0.046
				c-0.896,0-1.51,0.548-1.51,1.614v3.908h-1.932v-7.172h1.873v0.785c0.451-0.673,1.14-0.977,2.021-0.977
				c0.414,0,0.848,0.128,1.094,0.337L286.298,469.879z"/>
			<path id="XMLID_331_" style="fill:#222221;" d="M293.965,471.757c0,0.222-0.015,0.489-0.037,0.651h-5.085
				c0.207,1.036,0.933,1.488,1.843,1.488c0.622,0,1.295-0.252,1.813-0.688l1.132,1.243c-0.814,0.748-1.85,1.088-3.057,1.088
				c-2.198,0-3.723-1.495-3.723-3.753c0-2.258,1.48-3.797,3.627-3.797C292.544,467.99,293.958,469.522,293.965,471.757z
				 M288.851,471.091h3.175c-0.177-0.918-0.733-1.436-1.562-1.436C289.554,469.655,289.021,470.203,288.851,471.091z"/>
			<path id="XMLID_328_" style="fill:#222221;" d="M301.618,471.757c0,0.222-0.015,0.489-0.037,0.651h-5.085
				c0.207,1.036,0.932,1.488,1.843,1.488c0.622,0,1.295-0.252,1.813-0.688l1.132,1.243c-0.814,0.748-1.85,1.088-3.057,1.088
				c-2.198,0-3.723-1.495-3.723-3.753c0-2.258,1.48-3.797,3.627-3.797C300.197,467.99,301.611,469.522,301.618,471.757z
				 M296.504,471.091h3.175c-0.178-0.918-0.733-1.436-1.562-1.436C297.207,469.655,296.674,470.203,296.504,471.091z"/>
			<path id="XMLID_325_" style="fill:#222221;" d="M309.964,471.764c0,2.154-1.495,3.775-3.471,3.775
				c-0.962,0-1.643-0.378-2.109-0.933v3.708h-1.924v-10.133h1.887v0.792c0.466-0.585,1.155-0.984,2.139-0.984
				C308.469,467.99,309.964,469.61,309.964,471.764z M304.287,471.764c0,1.132,0.747,1.976,1.843,1.976
				c1.14,0,1.85-0.881,1.85-1.976c0-1.095-0.71-1.976-1.85-1.976C305.035,469.788,304.287,470.632,304.287,471.764z"/>
			<path id="XMLID_322_" style="fill:#222221;" d="M313.068,465.836c0,0.696-0.54,1.229-1.236,1.229
				c-0.696,0-1.229-0.533-1.229-1.229c0-0.696,0.533-1.243,1.229-1.243C312.527,464.592,313.068,465.14,313.068,465.836z
				 M312.809,475.354h-1.932v-7.172h1.932V475.354z"/>
			<path id="XMLID_320_" style="fill:#222221;" d="M316.032,470.736l2.702-2.554h2.368l-3.479,3.375l3.501,3.797h-2.376
				l-2.716-2.901v2.901H314.1v-10.658h1.932V470.736z"/>
		</g>
		<g>
			<path style="fill:#222221;" d="M184.412,475.289v-1.055c-0.527,0.718-1.391,1.23-2.387,1.23c-1.846,0-3.149-1.406-3.149-3.706
				c0-2.256,1.289-3.721,3.149-3.721c0.952,0,1.816,0.469,2.387,1.245v-3.765h1.099v9.77H184.412z M184.412,473.37v-3.208
				c-0.395-0.615-1.245-1.143-2.124-1.143c-1.421,0-2.27,1.172-2.27,2.739c0,1.567,0.85,2.724,2.27,2.724
				C183.168,474.483,184.017,473.986,184.412,473.37z"/>
			<path style="fill:#222221;" d="M186.932,471.744c0-2.051,1.465-3.706,3.486-3.706c2.139,0,3.398,1.67,3.398,3.794v0.279h-5.727
				c0.088,1.333,1.025,2.446,2.549,2.446c0.805,0,1.626-0.322,2.182-0.894l0.527,0.718c-0.703,0.703-1.655,1.084-2.812,1.084
				C188.44,475.465,186.932,473.956,186.932,471.744z M190.403,468.947c-1.509,0-2.256,1.274-2.314,2.358h4.643
				C192.718,470.25,192.015,468.947,190.403,468.947z"/>
			<path style="fill:#222221;" d="M194.607,474.351l0.571-0.791c0.469,0.542,1.362,1.011,2.329,1.011c1.084,0,1.67-0.513,1.67-1.216
				c0-1.714-4.38-0.659-4.38-3.281c0-1.098,0.952-2.036,2.636-2.036c1.201,0,2.051,0.454,2.622,1.026l-0.513,0.762
				c-0.424-0.513-1.201-0.894-2.109-0.894c-0.967,0-1.567,0.483-1.567,1.113c0,1.552,4.38,0.527,4.38,3.281
				c0,1.187-0.952,2.138-2.783,2.138C196.306,475.465,195.325,475.113,194.607,474.351z"/>
			<path style="fill:#222221;" d="M201.477,466.471c0-0.41,0.337-0.747,0.732-0.747c0.41,0,0.747,0.337,0.747,0.747
				c0,0.41-0.337,0.732-0.747,0.732C201.814,467.203,201.477,466.881,201.477,466.471z M201.667,475.289v-7.075h1.099v7.075H201.667
				z"/>
			<path style="fill:#222221;" d="M204.582,477.105l0.556-0.82c0.586,0.703,1.289,0.967,2.3,0.967c1.172,0,2.27-0.571,2.27-2.124
				v-1.011c-0.513,0.718-1.377,1.26-2.373,1.26c-1.845,0-3.149-1.377-3.149-3.662c0-2.27,1.289-3.677,3.149-3.677
				c0.952,0,1.802,0.469,2.373,1.245v-1.069h1.098v6.87c0,2.344-1.641,3.076-3.369,3.076
				C206.237,478.16,205.417,477.926,204.582,477.105z M209.709,473.253v-3.091c-0.381-0.615-1.23-1.143-2.109-1.143
				c-1.421,0-2.27,1.128-2.27,2.695c0,1.553,0.849,2.695,2.27,2.695C208.478,474.41,209.328,473.868,209.709,473.253z"/>
			<path style="fill:#222221;" d="M217.413,475.289v-4.629c0-1.245-0.63-1.641-1.582-1.641c-0.865,0-1.685,0.527-2.095,1.099v5.17
				h-1.099v-7.075h1.099v1.025c0.498-0.586,1.464-1.201,2.519-1.201c1.48,0,2.256,0.747,2.256,2.285v4.966H217.413z"/>
			<path style="fill:#222221;" d="M219.932,471.744c0-2.051,1.465-3.706,3.486-3.706c2.139,0,3.398,1.67,3.398,3.794v0.279h-5.727
				c0.088,1.333,1.025,2.446,2.549,2.446c0.806,0,1.626-0.322,2.183-0.894l0.527,0.718c-0.703,0.703-1.655,1.084-2.812,1.084
				C221.441,475.465,219.932,473.956,219.932,471.744z M223.404,468.947c-1.509,0-2.256,1.274-2.314,2.358h4.643
				C225.718,470.25,225.015,468.947,223.404,468.947z"/>
			<path style="fill:#222221;" d="M233.35,475.289v-1.055c-0.527,0.718-1.392,1.23-2.388,1.23c-1.846,0-3.149-1.406-3.149-3.706
				c0-2.256,1.289-3.721,3.149-3.721c0.952,0,1.817,0.469,2.388,1.245v-3.765h1.098v9.77H233.35z M233.35,473.37v-3.208
				c-0.396-0.615-1.245-1.143-2.124-1.143c-1.421,0-2.27,1.172-2.27,2.739c0,1.567,0.849,2.724,2.27,2.724
				C232.105,474.483,232.954,473.986,233.35,473.37z"/>
			<path style="fill:#222221;" d="M239.692,475.289v-9.77h1.098v3.765c0.572-0.776,1.421-1.245,2.388-1.245
				c1.845,0,3.149,1.465,3.149,3.721c0,2.299-1.304,3.706-3.149,3.706c-0.996,0-1.86-0.513-2.388-1.23v1.055H239.692z
				 M242.9,474.483c1.436,0,2.285-1.157,2.285-2.724c0-1.568-0.85-2.739-2.285-2.739c-0.864,0-1.728,0.527-2.109,1.143v3.208
				C241.171,473.986,242.036,474.483,242.9,474.483z"/>
			<path style="fill:#222221;" d="M247.528,477.061c0.161,0.073,0.425,0.117,0.601,0.117c0.483,0,0.805-0.161,1.055-0.747
				l0.469-1.069l-2.959-7.148h1.187l2.358,5.8l2.344-5.8h1.201l-3.545,8.51c-0.425,1.025-1.143,1.421-2.08,1.435
				c-0.234,0-0.601-0.044-0.805-0.103L247.528,477.061z"/>
		</g>
	</g>
</g>
</svg>
